<svg xmlns="http://www.w3.org/2000/svg" width="1600" height="900" viewBox="0 0 1600 900">
  <defs>
    <radialGradient id="bg" cx="50%" cy="40%" r="75%"><stop offset="0" stop-color="#14233c"/><stop offset="0.55" stop-color="#08111f"/><stop offset="1" stop-color="#02050a"/></radialGradient>
    <linearGradient id="metal" x1="0" y1="0" x2="1" y2="1"><stop offset="0" stop-color="#e9f2ff"/><stop offset="0.25" stop-color="#5f718c"/><stop offset="0.52" stop-color="#162234"/><stop offset="0.78" stop-color="#7e91aa"/><stop offset="1" stop-color="#f6fbff"/></linearGradient>
    <linearGradient id="glass" x1="0" y1="0" x2="1" y2="1"><stop offset="0" stop-color="#9fdcff" stop-opacity=".28"/><stop offset="1" stop-color="#0d1a2e" stop-opacity=".55"/></linearGradient>
    <linearGradient id="hot" x1="0" y1="0" x2="1" y2="0"><stop offset="0" stop-color="#ffb04d"/><stop offset="0.5" stop-color="#ff351f"/><stop offset="1" stop-color="#ffb04d"/></linearGradient>
    <filter id="glowBlue" x="-40%" y="-60%" width="180%" height="220%"><feGaussianBlur stdDeviation="8" result="b"/><feMerge><feMergeNode in="b"/><feMergeNode in="SourceGraphic"/></feMerge></filter>
    <filter id="glowHot" x="-40%" y="-60%" width="180%" height="220%"><feGaussianBlur stdDeviation="18" result="b"/><feMerge><feMergeNode in="b"/><feMergeNode in="SourceGraphic"/></feMerge></filter>
    <filter id="shadow" x="-20%" y="-20%" width="140%" height="140%"><feDropShadow dx="0" dy="28" stdDeviation="24" flood-color="#000" flood-opacity=".45"/></filter>
    <marker id="arrow" markerWidth="9" markerHeight="9" refX="7" refY="3" orient="auto"><path d="M0,0 L8,3 L0,6 Z" fill="#69d9ff"/></marker>
  </defs>
  <rect width="1600" height="900" fill="url(#bg)"/>
  <text x="800" y="92" text-anchor="middle" font-family="Inter,Segoe UI,Arial" font-size="62" font-weight="800" fill="#dbeeff">Conceptual Fluid Streamlines</text>
  <text x="800" y="132" text-anchor="middle" font-family="Inter,Segoe UI,Arial" font-size="22" fill="#75869b">Hybrid manifold microchannel cold plate · Flow-distribution concept for high-TDP AI cooling</text>
  <g transform="translate(128 176)" filter="url(#shadow)">
    <rect x="0" y="60" width="1344" height="570" rx="42" fill="url(#metal)" opacity=".94"/>
    <rect x="42" y="105" width="1260" height="480" rx="34" fill="#07111f" opacity=".88"/>
    <rect x="68" y="128" width="1208" height="430" rx="28" fill="url(#glass)" stroke="#8fcfff" stroke-opacity=".38" stroke-width="2"/>
    <g opacity=".85" fill="#050912" stroke="#9eb4cc" stroke-opacity=".45" stroke-width="2">
      <circle cx="50" cy="95" r="12"/><circle cx="1294" cy="95" r="12"/><circle cx="50" cy="595" r="12"/><circle cx="1294" cy="595" r="12"/><circle cx="230" cy="80" r="8"/><circle cx="672" cy="80" r="8"/><circle cx="1114" cy="80" r="8"/><circle cx="230" cy="610" r="8"/><circle cx="672" cy="610" r="8"/><circle cx="1114" cy="610" r="8"/>
    </g>
    <rect x="508" y="236" width="328" height="188" rx="16" fill="url(#hot)" filter="url(#glowHot)" opacity=".9"/>
    <g opacity=".45" stroke="#ffe2a6" stroke-width="1">
      <path d="M530 260 H814"/><path d="M530 280 H814"/><path d="M530 300 H814"/><path d="M530 320 H814"/><path d="M530 340 H814"/><path d="M530 360 H814"/><path d="M530 380 H814"/><path d="M530 400 H814"/>
    </g>
    <text x="672" y="460" text-anchor="middle" font-family="Inter,Arial" font-size="18" fill="#ffc69b" font-weight="700">1500W AI accelerator hotspot</text>
    <g fill="none" stroke-linecap="round" stroke-linejoin="round" marker-end="url(#arrow)" filter="url(#glowBlue)">
      <path d="M-120 345 C20 345,80 345,140 345 S250 250,380 250 C500 250,520 250,540 250 H1040 C1130 250,1190 285,1250 315 S1340 345,1464 345" stroke="#1a8fff" stroke-width="7" opacity=".95"/>
      <path d="M-120 345 C40 345,80 330,150 315 S250 286,380 286 H1040 C1135 286,1195 306,1258 328 S1355 345,1464 345" stroke="#35b7ff" stroke-width="5.5" opacity=".9"/>
      <path d="M-120 345 C42 345,94 363,160 382 S270 414,386 414 H1040 C1130 414,1195 388,1258 364 S1355 345,1464 345" stroke="#69d9ff" stroke-width="5.5" opacity=".86"/>
      <path d="M-120 345 C40 345,80 300,148 276 S260 214,390 214 H1030 C1130 214,1195 260,1250 292 S1350 345,1464 345" stroke="#0c74df" stroke-width="4.5" opacity=".7"/>
      <path d="M-120 345 C40 345,80 390,148 420 S260 476,390 476 H1030 C1130 476,1195 430,1250 398 S1350 345,1464 345" stroke="#7ee8ff" stroke-width="4.5" opacity=".72"/>
    </g>
    <g stroke="#2cc8ff" stroke-width="2" opacity=".55">
      <path d="M390 214 V476"/><path d="M425 214 V476"/><path d="M460 214 V476"/><path d="M1030 214 V476"/><path d="M1065 228 V462"/><path d="M1100 245 V445"/>
    </g>
    <g fill="#0b1524" stroke="#9fdcff" stroke-width="3">
      <rect x="-56" y="313" width="74" height="64" rx="20"/><rect x="1326" y="313" width="74" height="64" rx="20"/>
    </g>
    <text x="-82" y="296" font-family="Inter,Arial" font-size="30" fill="#8fe8ff" font-weight="800">IN</text>
    <text x="1402" y="296" font-family="Inter,Arial" font-size="30" fill="#8fe8ff" font-weight="800">OUT</text>
  </g>
</svg>