<svg xmlns="http://www.w3.org/2000/svg" width="1600" height="900" viewBox="0 0 1600 900">
  <defs>
    <linearGradient id="bg" x1="0" y1="0" x2="1" y2="1"><stop offset="0" stop-color="#050812"/><stop offset="0.55" stop-color="#0d1728"/><stop offset="1" stop-color="#06111f"/></linearGradient>
    <linearGradient id="hero" x1="0" x2="1"><stop offset="0" stop-color="#0f3b73"/><stop offset="0.55" stop-color="#0369a1"/><stop offset="1" stop-color="#22d3ee"/></linearGradient>
    <filter id="shadow" x="-20%" y="-20%" width="140%" height="140%"><feDropShadow dx="0" dy="18" stdDeviation="20" flood-color="#000" flood-opacity=".38"/></filter>
    <filter id="glow" x="-40%" y="-40%" width="180%" height="180%"><feGaussianBlur stdDeviation="7" result="b"/><feMerge><feMergeNode in="b"/><feMergeNode in="SourceGraphic"/></feMerge></filter>
  </defs>
  <rect width="1600" height="900" fill="url(#bg)"/>
  <rect x="44" y="38" width="1512" height="824" rx="30" fill="#0b1220" stroke="#1f334d" filter="url(#shadow)"/>
  <rect x="72" y="64" width="1456" height="120" rx="22" fill="url(#hero)"/>
  <text x="104" y="118" font-family="Inter,Segoe UI,Arial" font-size="46" font-weight="850" fill="#fff">❄️ ColdCircuit Studio</text>
  <text x="106" y="154" font-family="Inter,Segoe UI,Arial" font-size="20" fill="#d7f6ff">Dark interactive dashboard · structure switching · optimization method switching · synchronized rendering</text>
  <g font-family="Inter,Segoe UI,Arial">
    <rect x="72" y="214" width="310" height="590" rx="22" fill="#111827" stroke="#21324a"/>
    <text x="104" y="260" font-size="24" font-weight="800" fill="#f8fbff">Controls</text>
    <text x="104" y="306" font-size="14" font-weight="800" fill="#91a4bd">COLD PLATE STRUCTURE</text>
    <rect x="104" y="323" width="246" height="42" rx="12" fill="#0f2a44" stroke="#2563eb"/><text x="126" y="350" font-size="18" fill="#dbeafe">Hybrid manifold</text>
    <text x="104" y="402" font-size="14" font-weight="800" fill="#91a4bd">OPTIMIZATION METHOD</text>
    <rect x="104" y="419" width="246" height="42" rx="12" fill="#162033" stroke="#334155"/><text x="126" y="446" font-size="18" fill="#dbeafe">Grid search</text>
    <text x="104" y="498" font-size="14" font-weight="800" fill="#91a4bd">FLOW RATE</text>
    <line x1="112" y1="535" x2="346" y2="535" stroke="#334155" stroke-width="8" stroke-linecap="round"/><line x1="112" y1="535" x2="260" y2="535" stroke="#38bdf8" stroke-width="8" stroke-linecap="round"/><circle cx="260" cy="535" r="14" fill="#7dd3fc" filter="url(#glow)"/>
    <text x="104" y="590" font-size="14" font-weight="800" fill="#91a4bd">CHANNEL WIDTH</text>
    <line x1="112" y1="627" x2="346" y2="627" stroke="#334155" stroke-width="8" stroke-linecap="round"/><line x1="112" y1="627" x2="214" y2="627" stroke="#38bdf8" stroke-width="8" stroke-linecap="round"/><circle cx="214" cy="627" r="14" fill="#7dd3fc" filter="url(#glow)"/>
    <rect x="104" y="696" width="246" height="54" rx="16" fill="#0284c7"/><text x="158" y="730" font-size="18" font-weight="800" fill="#fff">Run optimization</text>
    <rect x="414" y="214" width="770" height="590" rx="22" fill="#0f172a" stroke="#21324a"/>
    <text x="446" y="260" font-size="24" font-weight="800" fill="#f8fbff">Synchronized Main Rendering</text>
    <rect x="446" y="294" width="132" height="72" rx="16" fill="#111f34"/><text x="466" y="322" font-size="13" fill="#91a4bd" font-weight="800">TDP</text><text x="466" y="352" font-size="27" fill="#fff" font-weight="850">1500W</text>
    <rect x="598" y="294" width="160" height="72" rx="16" fill="#111f34"/><text x="618" y="322" font-size="13" fill="#91a4bd" font-weight="800">MAX TEMP</text><text x="618" y="352" font-size="27" fill="#fff" font-weight="850">63.8°C</text>
    <rect x="778" y="294" width="160" height="72" rx="16" fill="#111f34"/><text x="798" y="322" font-size="13" fill="#91a4bd" font-weight="800">ΔP</text><text x="798" y="352" font-size="27" fill="#fff" font-weight="850">0.42bar</text>
    <rect x="958" y="294" width="194" height="72" rx="16" fill="#111f34"/><text x="978" y="322" font-size="13" fill="#91a4bd" font-weight="800">REGIME</text><text x="978" y="352" font-size="27" fill="#fff" font-weight="850">turbulent</text>
    <rect x="446" y="404" width="706" height="320" rx="22" fill="#07111f" stroke="#1e3a5f"/>
    <path d="M515 565 C620 430,750 450,840 455 S1005 515,1080 565" fill="none" stroke="#2cc8ff" stroke-width="9" stroke-linecap="round" filter="url(#glow)"/>
    <path d="M515 565 C650 520,780 535,900 535 S1020 550,1080 565" fill="none" stroke="#7ee8ff" stroke-width="5" stroke-linecap="round" filter="url(#glow)"/>
    <rect x="708" y="478" width="220" height="126" rx="14" fill="#ff4a28" opacity=".75" filter="url(#glow)"/>
    <text x="741" y="548" font-size="18" font-weight="850" fill="#fff5ef">1500W hotspot</text>
    <rect x="1216" y="214" width="312" height="590" rx="22" fill="#111827" stroke="#21324a"/>
    <text x="1248" y="260" font-size="24" font-weight="800" fill="#f8fbff">Guidance</text>
    <text x="1248" y="306" font-size="15" fill="#91a4bd">Structure notes</text>
    <text x="1248" y="340" font-size="17" fill="#e5edf8">• Prefer short parallel paths</text>
    <text x="1248" y="374" font-size="17" fill="#e5edf8">• Use embedded hotspot cooling</text>
    <text x="1248" y="408" font-size="17" fill="#e5edf8">• Balance dual manifolds</text>
    <text x="1248" y="462" font-size="15" fill="#91a4bd">Optimization method</text>
    <rect x="1248" y="486" width="236" height="88" rx="16" fill="#0f2a44" stroke="#1e40af"/><text x="1270" y="520" font-size="17" fill="#dbeafe" font-weight="800">Grid Search</text><text x="1270" y="548" font-size="14" fill="#9fb6d4">Transparent bounded scan</text>
    <text x="1248" y="636" font-size="15" fill="#91a4bd">Manufacturability</text>
    <rect x="1248" y="660" width="236" height="44" rx="14" fill="#102a22" stroke="#10b981"/><text x="1270" y="688" font-size="16" fill="#bbf7d0">No hard rule violation</text>
  </g>
</svg>