<svg xmlns="http://www.w3.org/2000/svg" width="1600" height="900" viewBox="0 0 1600 900">
  <defs>
    <radialGradient id="bg" cx="50%" cy="35%" r="80%"><stop offset="0" stop-color="#17233b"/><stop offset=".55" stop-color="#07111f"/><stop offset="1" stop-color="#020409"/></radialGradient>
    <linearGradient id="plate" x1="0" y1="0" x2="1" y2="1"><stop offset="0" stop-color="#f3f8ff"/><stop offset=".22" stop-color="#7f91a8"/><stop offset=".52" stop-color="#1b2638"/><stop offset=".82" stop-color="#6f829c"/><stop offset="1" stop-color="#f8fbff"/></linearGradient>
    <linearGradient id="layerBlue" x1="0" x2="1"><stop offset="0" stop-color="#0ea5e9"/><stop offset="1" stop-color="#67e8f9"/></linearGradient>
    <linearGradient id="hot" x1="0" x2="1"><stop offset="0" stop-color="#ffc56d"/><stop offset=".52" stop-color="#ff3826"/><stop offset="1" stop-color="#ffc56d"/></linearGradient>
    <filter id="shadow" x="-20%" y="-20%" width="140%" height="140%"><feDropShadow dx="0" dy="26" stdDeviation="24" flood-color="#000" flood-opacity=".45"/></filter>
    <filter id="glow" x="-40%" y="-40%" width="180%" height="180%"><feGaussianBlur stdDeviation="9" result="b"/><feMerge><feMergeNode in="b"/><feMergeNode in="SourceGraphic"/></feMerge></filter>
  </defs>
  <rect width="1600" height="900" fill="url(#bg)"/>
  <text x="70" y="92" font-family="Inter,Segoe UI,Arial" font-size="52" font-weight="850" fill="#eef6ff">1500W Hybrid Cold Plate Optimization</text>
  <text x="72" y="130" font-family="Inter,Segoe UI,Arial" font-size="22" fill="#90a4bc">Embedded copper spreading · manifold microchannels · local pin-fin enhancement · fast screening result</text>
  <g transform="translate(90 180)" filter="url(#shadow)">
    <polygon points="110,460 610,300 900,430 395,610" fill="url(#plate)" opacity=".95"/>
    <polygon points="110,380 610,220 900,350 395,530" fill="#10223a" stroke="#6fbfff" stroke-opacity=".45" stroke-width="2" opacity=".82"/>
    <polygon points="110,306 610,146 900,276 395,456" fill="#122b45" stroke="#35c2ff" stroke-opacity=".52" stroke-width="2" opacity=".84"/>
    <polygon points="110,232 610,72 900,202 395,382" fill="#2a2118" stroke="#ffc56d" stroke-opacity=".58" stroke-width="2" opacity=".86"/>
    <polygon points="388,178 620,108 748,166 512,244" fill="url(#hot)" filter="url(#glow)" opacity=".86"/>
    <g stroke="url(#layerBlue)" stroke-linecap="round" fill="none" filter="url(#glow)">
      <path d="M182 306 C300 245,405 250,520 252 S740 250,828 288" stroke-width="6" opacity=".92"/>
      <path d="M180 336 C310 290,420 295,535 298 S750 296,830 322" stroke-width="5" opacity=".78"/>
      <path d="M180 365 C310 340,428 345,548 345 S752 342,830 354" stroke-width="4" opacity=".7"/>
    </g>
    <g stroke="#7dd3fc" stroke-width="3" opacity=".52">
      <line x1="450" y1="150" x2="450" y2="245"/><line x1="486" y1="140" x2="486" y2="255"/><line x1="522" y1="130" x2="522" y2="268"/><line x1="558" y1="120" x2="558" y2="282"/><line x1="594" y1="112" x2="594" y2="292"/><line x1="630" y1="122" x2="630" y2="286"/>
    </g>
    <text x="500" y="275" font-family="Inter,Arial" font-size="21" fill="#ffcf9a" font-weight="800">1500W hotspot</text>
  </g>
  <g transform="translate(1030 180)" font-family="Inter,Segoe UI,Arial" filter="url(#shadow)">
    <rect x="0" y="0" width="500" height="600" rx="28" fill="#0f172a" stroke="#233853"/>
    <text x="38" y="58" font-size="30" font-weight="850" fill="#f8fbff">Optimized Candidate</text>
    <text x="40" y="92" font-size="17" fill="#91a4bd">Fast thermal-hydraulic screening · v0.3</text>
    <g>
      <rect x="38" y="126" width="190" height="92" rx="18" fill="#111f34" stroke="#1f3b60"/><text x="60" y="160" font-size="14" font-weight="800" fill="#91a4bd">CHANNEL WIDTH</text><text x="60" y="198" font-size="32" font-weight="850" fill="#fff">1.2 mm</text>
      <rect x="272" y="126" width="190" height="92" rx="18" fill="#111f34" stroke="#1f3b60"/><text x="294" y="160" font-size="14" font-weight="800" fill="#91a4bd">CHANNEL DEPTH</text><text x="294" y="198" font-size="32" font-weight="850" fill="#fff">2.5 mm</text>
      <rect x="38" y="246" width="190" height="92" rx="18" fill="#102a22" stroke="#166534"/><text x="60" y="280" font-size="14" font-weight="800" fill="#91a4bd">FLOW RATE</text><text x="60" y="318" font-size="32" font-weight="850" fill="#bbf7d0">8 L/min</text>
      <rect x="272" y="246" width="190" height="92" rx="18" fill="#102a22" stroke="#166534"/><text x="294" y="280" font-size="14" font-weight="800" fill="#91a4bd">MICROCHANNELS</text><text x="294" y="318" font-size="32" font-weight="850" fill="#bbf7d0">80</text>
    </g>
    <rect x="38" y="374" width="424" height="74" rx="20" fill="#271a11" stroke="#9a3412"/><text x="64" y="421" font-size="27" font-weight="850" fill="#fed7aa">Max source temp ≈ 63.8 °C</text>
    <rect x="38" y="470" width="424" height="74" rx="20" fill="#0a2542" stroke="#0369a1"/><text x="64" y="517" font-size="27" font-weight="850" fill="#bae6fd">Pressure drop ≈ 0.42 bar</text>
  </g>
  <g transform="translate(118 760)" font-family="Inter,Arial">
    <rect x="0" y="0" width="320" height="56" rx="28" fill="#102a44" stroke="#155e94"/><text x="34" y="36" font-size="19" font-weight="800" fill="#bae6fd">short parallel flow paths</text>
    <rect x="360" y="0" width="320" height="56" rx="28" fill="#2c1b10" stroke="#9a3412"/><text x="394" y="36" font-size="19" font-weight="800" fill="#fed7aa">embedded hotspot cooling</text>
    <rect x="720" y="0" width="300" height="56" rx="28" fill="#102a22" stroke="#166534"/><text x="754" y="36" font-size="19" font-weight="800" fill="#bbf7d0">balanced manifolds</text>
    <rect x="1060" y="0" width="330" height="56" rx="28" fill="#22194a" stroke="#6d5bd0"/><text x="1094" y="36" font-size="19" font-weight="800" fill="#ddd6fe">CFD validation required</text>
  </g>
</svg>