<svg xmlns="http://www.w3.org/2000/svg" width="1400" height="820" viewBox="0 0 1400 820">
  <defs>
    <linearGradient id="hero" x1="0" x2="1" y1="0" y2="1">
      <stop offset="0" stop-color="#0f3b73"/>
      <stop offset="0.55" stop-color="#0e8bd1"/>
      <stop offset="1" stop-color="#6ee7ff"/>
    </linearGradient>
    <linearGradient id="bg" x1="0" x2="0" y1="0" y2="1">
      <stop offset="0" stop-color="#f6faff"/>
      <stop offset="1" stop-color="#ffffff"/>
    </linearGradient>
    <filter id="shadow" x="-20%" y="-20%" width="140%" height="140%">
      <feDropShadow dx="0" dy="16" stdDeviation="18" flood-color="#1a4d83" flood-opacity="0.16"/>
    </filter>
  </defs>
  <rect width="1400" height="820" fill="url(#bg)"/>
  <rect x="30" y="28" width="1340" height="764" rx="28" fill="#ffffff" filter="url(#shadow)"/>
  <rect x="60" y="58" width="1280" height="135" rx="24" fill="url(#hero)"/>
  <text x="92" y="112" fill="#ffffff" font-family="Inter, Arial" font-size="46" font-weight="800">❄ ColdCircuit Studio</text>
  <text x="94" y="155" fill="#e9f8ff" font-family="Inter, Arial" font-size="20">Interactive 3D liquid cold plate design · 1500W TDP screening · embedded cooling rules · optimization candidates</text>

  <g font-family="Inter, Arial">
    <rect x="60" y="220" width="230" height="92" rx="18" fill="#ffffff" stroke="#e6effb" filter="url(#shadow)"/>
    <text x="84" y="254" font-size="14" fill="#63738a" font-weight="700">TDP</text>
    <text x="84" y="292" font-size="34" fill="#12263f" font-weight="800">1500 W</text>
    <rect x="310" y="220" width="230" height="92" rx="18" fill="#ffffff" stroke="#e6effb" filter="url(#shadow)"/>
    <text x="334" y="254" font-size="14" fill="#63738a" font-weight="700">MAX TEMP</text>
    <text x="334" y="292" font-size="34" fill="#12263f" font-weight="800">63.8 °C</text>
    <rect x="560" y="220" width="230" height="92" rx="18" fill="#ffffff" stroke="#e6effb" filter="url(#shadow)"/>
    <text x="584" y="254" font-size="14" fill="#63738a" font-weight="700">PRESSURE DROP</text>
    <text x="584" y="292" font-size="34" fill="#12263f" font-weight="800">0.42 bar</text>
    <rect x="810" y="220" width="230" height="92" rx="18" fill="#ffffff" stroke="#e6effb" filter="url(#shadow)"/>
    <text x="834" y="254" font-size="14" fill="#63738a" font-weight="700">COOLANT ΔT</text>
    <text x="834" y="292" font-size="34" fill="#12263f" font-weight="800">2.7 K</text>
    <rect x="1060" y="220" width="280" height="92" rx="18" fill="#ffffff" stroke="#e6effb" filter="url(#shadow)"/>
    <text x="1084" y="254" font-size="14" fill="#63738a" font-weight="700">FLOW REGIME</text>
    <text x="1084" y="292" font-size="34" fill="#12263f" font-weight="800">turbulent</text>
  </g>

  <rect x="60" y="348" width="760" height="390" rx="24" fill="#fbfdff" stroke="#dfeaf8"/>
  <text x="90" y="390" font-family="Inter, Arial" font-size="24" fill="#12263f" font-weight="800">Interactive 3D Structure</text>
  <g transform="translate(125 430)">
    <polygon points="110,210 455,110 620,195 270,305" fill="#d9efff" stroke="#76b7e7" stroke-width="3" opacity="0.75"/>
    <polygon points="110,165 455,65 620,150 270,260" fill="#e9f7ff" stroke="#a2d8f4" stroke-width="3" opacity="0.65"/>
    <polygon points="110,120 455,20 620,105 270,215" fill="#fff4e1" stroke="#f3bd59" stroke-width="3" opacity="0.68"/>
    <polygon points="260,98 445,48 530,92 344,148" fill="#ff8a65" opacity="0.38" stroke="#e95f3d"/>
    <circle cx="130" cy="113" r="14" fill="#0e8bd1"/>
    <circle cx="600" cy="106" r="14" fill="#1fb6a6"/>
    <text x="87" y="92" font-family="Inter, Arial" font-size="16" fill="#0f3b73" font-weight="700">IN</text>
    <text x="605" y="84" font-family="Inter, Arial" font-size="16" fill="#0f735d" font-weight="700">OUT</text>
    <text x="322" y="88" font-family="Inter, Arial" font-size="16" fill="#b33b22" font-weight="800">AI accelerator hotspot</text>
    <path d="M150 118 C240 65, 330 80, 420 80 S545 95, 584 105" fill="none" stroke="#0e8bd1" stroke-width="5" opacity="0.75"/>
    <path d="M150 145 C250 100, 350 115, 430 118 S545 126, 584 135" fill="none" stroke="#2db7f5" stroke-width="4" opacity="0.65"/>
    <path d="M150 172 C250 142, 350 150, 430 156 S545 160, 584 166" fill="none" stroke="#65d6ff" stroke-width="4" opacity="0.65"/>
  </g>

  <rect x="850" y="348" width="490" height="390" rx="24" fill="#fbfdff" stroke="#dfeaf8"/>
  <text x="880" y="390" font-family="Inter, Arial" font-size="24" fill="#12263f" font-weight="800">Optimization + Rules</text>
  <g font-family="Inter, Arial">
    <rect x="882" y="420" width="424" height="42" rx="12" fill="#eef7ff"/>
    <text x="902" y="448" font-size="16" fill="#163b63" font-weight="700">Best candidate: width 1.2 mm · depth 2.5 mm · flow 8 L/min</text>
    <rect x="882" y="482" width="200" height="88" rx="16" fill="#ffffff" stroke="#e5effa"/>
    <text x="902" y="514" font-size="15" fill="#63738a" font-weight="700">Architecture</text>
    <text x="902" y="548" font-size="22" fill="#12263f" font-weight="800">Hybrid</text>
    <rect x="1106" y="482" width="200" height="88" rx="16" fill="#ffffff" stroke="#e5effa"/>
    <text x="1126" y="514" font-size="15" fill="#63738a" font-weight="700">Feasible cases</text>
    <text x="1126" y="548" font-size="22" fill="#12263f" font-weight="800">37 / 125</text>
    <rect x="882" y="596" width="424" height="94" rx="16" fill="#fffaf0" stroke="#f2d9a8"/>
    <text x="904" y="628" font-size="17" fill="#805800" font-weight="800">1500W design rule</text>
    <text x="904" y="660" font-size="15" fill="#5c4a21">Prefer manifold microchannels + embedded cooling + local pin fins.</text>
  </g>
</svg>
